# xmcd
#
# Track frame offsets: 
#        150
#        21517
#        39405
#        52642
#        65407
#        83250
#        101430
#        112015
#        129610
#        147020
#        170452
#        182134
#        205027
#        223257
#        240342
#        268760
#
# Disc length: 3977 seconds
#
# Revision: 0
# Processed by: cddbd v1.5.1PL0 Copyright (c) Steve Scherf et al.
# Submitted via: ExactAudioCopy v0.95a5
#
DISCID=d80f8710
DTITLE=Bryan Adams - The Best Of [CD1]
DYEAR=1900
DGENRE=∆’Õ®“°πˆ¿÷
TTITLE0=Here I Am
TTITLE1=I Will Always Return
TTITLE2=You Can't Take Me
TTITLE3=Get Off My Back
TTITLE4=Brothers Under The Sun
TTITLE5=Don't Let Go
TTITLE6=This Is Where I Belong
TTITLE7=Sound The Bugle
TTITLE8=Nothing I've Ever Known
TTITLE9=Cuts Like A Knife
TTITLE10=Kids Wanna Rock
TTITLE11=Heat Of The Night
TTITLE12=If I Had You
TTITLE13=Where Angels Fear To Tread
TTITLE14=Let's Make A Night To Remember
TTITLE15=Everything I Do
EXTD=
EXTT0=
EXTT1=
EXTT2=
EXTT3=
EXTT4=
EXTT5=
EXTT6=
EXTT7=
EXTT8=
EXTT9=
EXTT10=
EXTT11=
EXTT12=
EXTT13=
EXTT14=
EXTT15=
PLAYORDER=
